<svg 
  version="1.1" 
  viewBox="0 0 1920 1080" 
  height="99" 
  preserveAspectRatio="xMidYMid meet"
  xml:space="preserve" 
  xmlns="http://www.w3.org/2000/svg" 
  xmlns:xlink="http://www.w3.org/1999/xlink">
<defs/>
<g id="Layer-1">
<path d="M213.211 662.666C160.126 662.666 118.597 635.537 118.597 574.586L118.429 438.947L166.559 416.657L168.835 567.718C168.835 604.56 188.429 618.291 213.213 618.291C238.165 618.291 257.924 604.392 257.924 567.718L258.26 438.947L308.414 415.834L308.162 574.586C308.162 635.542 266.465 662.666 213.214 662.666L213.211 662.666ZM416.002 614.94L491.862 614.94L491.862 659.317L365.764 659.317L367.528 438.947L414.39 417.438L416.002 614.938L416.002 614.94ZM670.546 417.334L671.159 461.12L613.107 461.544L613.107 659.311L563.371 659.311L563.371 461.544L505.597 461.544L504.211 438.947L550.474 416.418L670.543 417.334L670.546 417.334ZM836.33 659.317L773.365 552.811L758.796 552.811L758.796 659.317L708.557 659.317L710.422 438.947L758.965 416.844L796.303 417.334C851.063 417.334 874.172 449.653 874.172 489.677C874.172 522.164 855.752 543.264 822.929 550.297L895.774 659.315L836.326 659.315L836.33 659.317ZM758.793 459.038L758.793 516.812L788.433 516.812C815.227 516.812 826.112 505.424 826.112 488.008C826.112 470.76 815.227 459.038 788.433 459.038L758.793 459.038ZM1094.55 659.317L1076.97 609.414L975.323 609.414L957.74 659.317L906.329 659.317L984.881 438.947L1028.99 417.413L1059.67 416.918L1089.95 501.968L1145.97 659.317L1094.56 659.317L1094.55 659.317ZM990.06 567.378L1062.24 567.378L1026.23 464.722L990.06 567.378ZM1310.08 659.317L1247.11 552.811L1232.54 552.811L1232.54 659.317L1182.3 659.317L1182.1 438.947L1230.36 417.345L1270.05 417.334C1324.81 417.334 1347.92 449.653 1347.92 489.677C1347.92 522.164 1329.5 543.264 1296.67 550.297L1369.52 659.315L1310.07 659.315L1310.08 659.317ZM1232.54 459.038L1232.54 516.812L1262.18 516.812C1288.97 516.812 1299.86 505.424 1299.86 488.008C1299.86 470.76 1288.97 459.038 1262.18 459.038L1232.54 459.038ZM1546.7 461.55L1456.94 461.55L1456.94 516.477L1536.48 516.477L1536.48 560.185L1456.94 560.185L1456.94 614.944L1546.7 614.944L1546.7 659.321L1406.37 659.321L1403.52 438.947L1452.56 417.338L1546.7 417.338L1546.7 461.548L1546.7 461.55ZM1598.44 659.317L1595.9 438.947L1645.95 417.334L1686.02 417.334C1763.22 417.334 1801.4 465.898 1801.4 538.244C1801.4 610.754 1763.22 659.317 1686.02 659.317L1598.44 659.317ZM1648.68 614.94L1683.51 614.94C1728.05 614.94 1748.48 587.141 1748.48 538.243C1748.48 489.345 1728.05 461.546 1683.51 461.546L1648.68 461.546L1648.68 614.943L1648.68 614.94Z" fill="#fcfefe" fill-rule="nonzero" opacity="1" stroke="none"/>
</g>
</svg>
